<mxfile host="app.diagrams.net" modified="2020-11-10T01:17:07.161Z" agent="5.0 (X11; CrOS x86_64 13421.73.0) AppleWebKit/537.36 (KHTML, like Gecko) Chrome/86.0.4240.112 Safari/537.36" etag="tbG5Xj-al9RUbTv9Se73" version="13.9.2" type="github">
  <diagram id="0hn3Q1k_1RtF3xA0sQil" name="Page-1">
    <mxGraphModel dx="2340" dy="1580" grid="1" gridSize="10" guides="1" tooltips="1" connect="1" arrows="1" fold="1" page="1" pageScale="1" pageWidth="850" pageHeight="1100" math="0" shadow="0">
      <root>
        <mxCell id="0" />
        <mxCell id="1" parent="0" />
        <mxCell id="F4p5XF6Mx1MLna50HAqi-1" value="" style="rounded=0;whiteSpace=wrap;html=1;" vertex="1" parent="1">
          <mxGeometry x="10" y="25" width="1680" height="2015" as="geometry" />
        </mxCell>
        <mxCell id="F4p5XF6Mx1MLna50HAqi-4" value="&lt;font style=&quot;font-size: 33px&quot;&gt;About Me&lt;/font&gt;" style="rounded=1;whiteSpace=wrap;html=1;" vertex="1" parent="1">
          <mxGeometry x="1060" y="90" width="170" height="82" as="geometry" />
        </mxCell>
        <mxCell id="F4p5XF6Mx1MLna50HAqi-7" value="&lt;font style=&quot;font-size: 33px&quot;&gt;Home&lt;/font&gt;" style="rounded=1;whiteSpace=wrap;html=1;" vertex="1" parent="1">
          <mxGeometry x="850" y="90" width="170" height="82" as="geometry" />
        </mxCell>
        <mxCell id="F4p5XF6Mx1MLna50HAqi-8" value="&lt;font style=&quot;font-size: 33px&quot;&gt;Projects&lt;/font&gt;" style="rounded=1;whiteSpace=wrap;html=1;" vertex="1" parent="1">
          <mxGeometry x="1270" y="90" width="170" height="82" as="geometry" />
        </mxCell>
        <mxCell id="F4p5XF6Mx1MLna50HAqi-10" value="&lt;font style=&quot;font-size: 33px&quot;&gt;Contact&lt;/font&gt;" style="rounded=1;whiteSpace=wrap;html=1;" vertex="1" parent="1">
          <mxGeometry x="1480" y="90" width="170" height="82" as="geometry" />
        </mxCell>
        <mxCell id="F4p5XF6Mx1MLna50HAqi-11" value="" style="whiteSpace=wrap;html=1;aspect=fixed;" vertex="1" parent="1">
          <mxGeometry x="130" y="240" width="720" height="720" as="geometry" />
        </mxCell>
        <mxCell id="F4p5XF6Mx1MLna50HAqi-12" value="" style="whiteSpace=wrap;html=1;aspect=fixed;" vertex="1" parent="1">
          <mxGeometry x="850" y="240" width="720" height="720" as="geometry" />
        </mxCell>
        <mxCell id="F4p5XF6Mx1MLna50HAqi-13" value="" style="whiteSpace=wrap;html=1;aspect=fixed;" vertex="1" parent="1">
          <mxGeometry x="130" y="960" width="720" height="720" as="geometry" />
        </mxCell>
        <mxCell id="F4p5XF6Mx1MLna50HAqi-14" value="" style="whiteSpace=wrap;html=1;aspect=fixed;" vertex="1" parent="1">
          <mxGeometry x="850" y="960" width="720" height="720" as="geometry" />
        </mxCell>
        <mxCell id="F4p5XF6Mx1MLna50HAqi-15" value="&lt;h1&gt;&lt;font style=&quot;font-size: 50px&quot;&gt;Heading&lt;/font&gt;&lt;/h1&gt;&lt;p&gt;&lt;font style=&quot;font-size: 43px&quot;&gt;Lorem ipsum dolor sit amet, consectetur adipisicing elit, sed do eiusmod tempor incididunt ut labore et dolore magna aliqua.&lt;/font&gt;&lt;/p&gt;" style="text;html=1;strokeColor=none;fillColor=none;spacing=5;spacingTop=-20;whiteSpace=wrap;overflow=hidden;rounded=0;align=left;verticalAlign=middle;" vertex="1" parent="1">
          <mxGeometry x="230" y="330" width="490" height="520" as="geometry" />
        </mxCell>
        <mxCell id="F4p5XF6Mx1MLna50HAqi-16" value="&lt;h1&gt;&lt;font style=&quot;font-size: 50px&quot;&gt;Heading&lt;/font&gt;&lt;/h1&gt;&lt;p&gt;&lt;font style=&quot;font-size: 43px&quot;&gt;Lorem ipsum dolor sit amet, consectetur adipisicing elit, sed do eiusmod tempor incididunt ut labore et dolore magna aliqua.&lt;/font&gt;&lt;/p&gt;" style="text;html=1;strokeColor=none;fillColor=none;spacing=5;spacingTop=-20;whiteSpace=wrap;overflow=hidden;rounded=0;align=left;verticalAlign=middle;" vertex="1" parent="1">
          <mxGeometry x="965" y="1060" width="490" height="520" as="geometry" />
        </mxCell>
        <mxCell id="F4p5XF6Mx1MLna50HAqi-17" value="" style="verticalLabelPosition=bottom;verticalAlign=top;html=1;shape=mxgraph.basic.smiley;align=left;" vertex="1" parent="1">
          <mxGeometry x="1160" y="540" width="100" height="100" as="geometry" />
        </mxCell>
        <mxCell id="F4p5XF6Mx1MLna50HAqi-18" value="&lt;br&gt;" style="shape=umlActor;verticalLabelPosition=bottom;verticalAlign=top;html=1;outlineConnect=0;align=left;aspect=fixed;" vertex="1" parent="1">
          <mxGeometry x="330" y="1020" width="300" height="600" as="geometry" />
        </mxCell>
        <mxCell id="F4p5XF6Mx1MLna50HAqi-20" value="&lt;font style=&quot;font-size: 50px&quot;&gt;logo&lt;/font&gt;" style="text;strokeColor=#82b366;fillColor=#d5e8d4;html=1;fontSize=24;fontStyle=1;verticalAlign=middle;align=center;aspect=fixed;rounded=1;glass=1;" vertex="1" parent="1">
          <mxGeometry x="130" y="71" width="300" height="120" as="geometry" />
        </mxCell>
      </root>
    </mxGraphModel>
  </diagram>
</mxfile>
